<?xml version="1.0" encoding="utf-8"?>
<!-- Generator: Adobe Illustrator 25.2.0, SVG Export Plug-In . SVG Version: 6.00 Build 0)  -->
<svg version="1.1" id="_x2014_ÎÓÈ_x5F_1" xmlns="http://www.w3.org/2000/svg" xmlns:xlink="http://www.w3.org/1999/xlink"
	 x="0px" y="0px" viewBox="0 0 373.7 197" style="enable-background:new 0 0 373.7 197;" xml:space="preserve">
<style type="text/css">
	.st0{stroke:#000000;stroke-miterlimit:10;}
	.st1{display:none;fill:#31363C;}
	.st2{display:none;}
	.st3{display:inline;}
	.st4{fill:#31363C;fill-opacity:0;}
	.st5{opacity:6.250000e-02;fill:url(#SVGID_1_);enable-background:new    ;}
	.st6{opacity:0.125;fill:url(#SVGID_2_);enable-background:new    ;}
	.st7{opacity:0.1875;fill:url(#SVGID_3_);enable-background:new    ;}
	.st8{opacity:0.25;fill:url(#SVGID_4_);enable-background:new    ;}
	.st9{opacity:0.3125;fill:url(#SVGID_5_);enable-background:new    ;}
	.st10{opacity:0.375;fill:url(#SVGID_6_);enable-background:new    ;}
	.st11{opacity:0.4375;fill:url(#SVGID_7_);enable-background:new    ;}
	.st12{opacity:0.5;fill:url(#SVGID_8_);enable-background:new    ;}
	.st13{opacity:0.5625;fill:url(#SVGID_9_);enable-background:new    ;}
	.st14{opacity:0.625;fill:url(#SVGID_10_);enable-background:new    ;}
	.st15{opacity:0.6875;fill:url(#SVGID_11_);enable-background:new    ;}
	.st16{opacity:0.75;fill:url(#SVGID_12_);enable-background:new    ;}
	.st17{opacity:0.8125;fill:url(#SVGID_13_);enable-background:new    ;}
	.st18{opacity:0.875;fill:url(#SVGID_14_);enable-background:new    ;}
	.st19{opacity:0.9375;fill:url(#SVGID_15_);enable-background:new    ;}
	.st20{fill:url(#SVGID_16_);}
	.st21{display:inline;fill:#31363C;}
	.st22{fill:#FFFEFF;}
	.st23{fill:url(#SVGID_17_);}
	.st24{fill:url(#SVGID_18_);}
	.st25{fill:url(#SVGID_19_);}
	.st26{fill:url(#SVGID_20_);}
	.st27{opacity:0.2;enable-background:new    ;}
	.st28{opacity:0.12;enable-background:new    ;}
	.st29{opacity:0.25;fill:#FFFFFF;enable-background:new    ;}
</style>
<path class="st0" d="M318.6,141.2H55.4c-10.9,0-19.8-8.8-19.8-19.8V76.6c0-10.9,8.8-19.8,19.8-19.8h263.2c10.9,0,19.8,8.8,19.8,19.8
	v44.8C338.3,132.3,329.5,141.2,318.6,141.2z"/>
<rect x="-327.3" y="0" class="st1" width="701" height="197"/>
<g>
	<g>
		<g class="st2">
			<g class="st3">
				<path class="st4" d="M73.2,160c-27.6,0-50-22.4-50-50V82.9c0-27.6,22.4-50,50-50h220.6c27.6,0,50,22.4,50,50V110
					c0,27.6-22.4,50-50,50L73.2,160L73.2,160z"/>
				
					<linearGradient id="SVGID_1_" gradientUnits="userSpaceOnUse" x1="169.3584" y1="181.1333" x2="197.5833" y2="21.0621" gradientTransform="matrix(1 0 0 -1 0 197.5275)">
					<stop  offset="0.2" style="stop-color:#31373D"/>
					<stop  offset="0.9" style="stop-color:#30353B"/>
				</linearGradient>
				<path class="st5" d="M73.2,158.7c-26.9,0-48.8-21.9-48.8-48.8V82.9c0-26.9,21.9-48.8,48.8-48.8h220.6
					c26.9,0,48.8,21.9,48.8,48.8V110c0,26.9-21.9,48.8-48.8,48.8L73.2,158.7L73.2,158.7z"/>
				
					<linearGradient id="SVGID_2_" gradientUnits="userSpaceOnUse" x1="169.5754" y1="179.9029" x2="197.3663" y2="22.2925" gradientTransform="matrix(1 0 0 -1 0 197.5275)">
					<stop  offset="0.2" style="stop-color:#32373D"/>
					<stop  offset="0.9" style="stop-color:#2F343A"/>
				</linearGradient>
				<path class="st6" d="M73.2,157.5c-26.2,0-47.5-21.3-47.5-47.5V82.9c0-26.2,21.3-47.5,47.5-47.5h220.6
					c26.2,0,47.5,21.3,47.5,47.5V110c0,26.2-21.3,47.5-47.5,47.5L73.2,157.5L73.2,157.5z"/>
				
					<linearGradient id="SVGID_3_" gradientUnits="userSpaceOnUse" x1="169.7924" y1="178.6718" x2="197.1493" y2="23.5237" gradientTransform="matrix(1 0 0 -1 0 197.5275)">
					<stop  offset="0.2" style="stop-color:#32383E"/>
					<stop  offset="0.9" style="stop-color:#2D3238"/>
				</linearGradient>
				<path class="st7" d="M73.2,156.2c-25.5,0-46.2-20.7-46.2-46.2V82.9c0-25.5,20.7-46.2,46.2-46.2h220.6
					c25.5,0,46.2,20.7,46.2,46.2V110c0,25.5-20.7,46.2-46.2,46.2L73.2,156.2L73.2,156.2z"/>
				
					<linearGradient id="SVGID_4_" gradientUnits="userSpaceOnUse" x1="170.0096" y1="177.4405" x2="196.9321" y2="24.7549" gradientTransform="matrix(1 0 0 -1 0 197.5275)">
					<stop  offset="0.2" style="stop-color:#33383E"/>
					<stop  offset="0.9" style="stop-color:#2C3137"/>
				</linearGradient>
				<path class="st8" d="M73.2,155c-24.8,0-45-20.2-45-45V82.9c0-24.8,20.2-45,45-45h220.6c24.8,0,45,20.2,45,45V110
					c0,24.8-20.2,45-45,45L73.2,155L73.2,155z"/>
				
					<linearGradient id="SVGID_5_" gradientUnits="userSpaceOnUse" x1="170.2267" y1="176.2094" x2="196.7151" y2="25.9861" gradientTransform="matrix(1 0 0 -1 0 197.5275)">
					<stop  offset="0.2" style="stop-color:#33393F"/>
					<stop  offset="0.9" style="stop-color:#2B3036"/>
				</linearGradient>
				<path class="st9" d="M73.2,153.7c-24.1,0-43.8-19.6-43.8-43.8V82.9c0-24.1,19.6-43.8,43.8-43.8h220.6
					c24.1,0,43.8,19.6,43.8,43.8V110c0,24.1-19.6,43.8-43.8,43.8L73.2,153.7L73.2,153.7z"/>
				
					<linearGradient id="SVGID_6_" gradientUnits="userSpaceOnUse" x1="170.4437" y1="174.9782" x2="196.498" y2="27.2172" gradientTransform="matrix(1 0 0 -1 0 197.5275)">
					<stop  offset="0.2" style="stop-color:#34393F"/>
					<stop  offset="0.9" style="stop-color:#2A2F35"/>
				</linearGradient>
				<path class="st10" d="M73.2,152.5c-23.4,0-42.5-19.1-42.5-42.5V82.9c0-23.4,19.1-42.5,42.5-42.5h220.6
					c23.4,0,42.5,19.1,42.5,42.5V110c0,23.4-19.1,42.5-42.5,42.5L73.2,152.5L73.2,152.5z"/>
				
					<linearGradient id="SVGID_7_" gradientUnits="userSpaceOnUse" x1="170.6607" y1="173.7477" x2="196.281" y2="28.4477" gradientTransform="matrix(1 0 0 -1 0 197.5275)">
					<stop  offset="0.2" style="stop-color:#343A40"/>
					<stop  offset="0.9" style="stop-color:#292E33"/>
				</linearGradient>
				<path class="st11" d="M73.2,151.2c-22.8,0-41.2-18.5-41.2-41.2V82.9c0-22.8,18.5-41.2,41.2-41.2h220.6
					c22.8,0,41.2,18.5,41.2,41.2V110c0,22.8-18.5,41.2-41.2,41.2L73.2,151.2L73.2,151.2z"/>
				
					<linearGradient id="SVGID_8_" gradientUnits="userSpaceOnUse" x1="170.8778" y1="172.5166" x2="196.064" y2="29.6788" gradientTransform="matrix(1 0 0 -1 0 197.5275)">
					<stop  offset="0.2" style="stop-color:#353B40"/>
					<stop  offset="0.9" style="stop-color:#272D32"/>
				</linearGradient>
				<path class="st12" d="M73.2,150c-22.1,0-40-17.9-40-40V82.9c0-22.1,17.9-40,40-40h220.6c22.1,0,40,17.9,40,40V110
					c0,22.1-17.9,40-40,40L73.2,150L73.2,150z"/>
				
					<linearGradient id="SVGID_9_" gradientUnits="userSpaceOnUse" x1="171.0949" y1="171.2853" x2="195.8468" y2="30.9101" gradientTransform="matrix(1 0 0 -1 0 197.5275)">
					<stop  offset="0.2" style="stop-color:#353B41"/>
					<stop  offset="0.9" style="stop-color:#262B31"/>
				</linearGradient>
				<path class="st13" d="M73.2,148.7c-21.4,0-38.8-17.4-38.8-38.8V82.9c0-21.4,17.4-38.8,38.8-38.8h220.6
					c21.4,0,38.8,17.4,38.8,38.8V110c0,21.4-17.4,38.8-38.8,38.8L73.2,148.7L73.2,148.7z"/>
				
					<linearGradient id="SVGID_10_" gradientUnits="userSpaceOnUse" x1="171.312" y1="170.0542" x2="195.6297" y2="32.1413" gradientTransform="matrix(1 0 0 -1 0 197.5275)">
					<stop  offset="0.2" style="stop-color:#363C41"/>
					<stop  offset="0.9" style="stop-color:#252A30"/>
				</linearGradient>
				<path class="st14" d="M73.2,147.5c-20.7,0-37.5-16.8-37.5-37.5V82.9c0-20.7,16.8-37.5,37.5-37.5h220.6
					c20.7,0,37.5,16.8,37.5,37.5V110c0,20.7-16.8,37.5-37.5,37.5L73.2,147.5L73.2,147.5z"/>
				
					<linearGradient id="SVGID_11_" gradientUnits="userSpaceOnUse" x1="171.5289" y1="168.8237" x2="195.4128" y2="33.3717" gradientTransform="matrix(1 0 0 -1 0 197.5275)">
					<stop  offset="0.2" style="stop-color:#363C42"/>
					<stop  offset="0.9" style="stop-color:#24292E"/>
				</linearGradient>
				<path class="st15" d="M73.2,146.2c-20,0-36.2-16.2-36.2-36.2V82.9c0-20,16.2-36.2,36.2-36.2h220.6c20,0,36.2,16.2,36.2,36.2V110
					c0,20-16.2,36.2-36.2,36.2L73.2,146.2L73.2,146.2z"/>
				
					<linearGradient id="SVGID_12_" gradientUnits="userSpaceOnUse" x1="171.746" y1="167.5925" x2="195.1957" y2="34.6029" gradientTransform="matrix(1 0 0 -1 0 197.5275)">
					<stop  offset="0.2" style="stop-color:#373D42"/>
					<stop  offset="0.9" style="stop-color:#23282D"/>
				</linearGradient>
				<path class="st16" d="M73.2,145c-19.3,0-35-15.7-35-35V82.9c0-19.3,15.7-35,35-35h220.6c19.3,0,35,15.7,35,35V110
					c0,19.3-15.7,35-35,35L73.2,145L73.2,145z"/>
				
					<linearGradient id="SVGID_13_" gradientUnits="userSpaceOnUse" x1="171.9631" y1="166.3613" x2="194.9786" y2="35.8341" gradientTransform="matrix(1 0 0 -1 0 197.5275)">
					<stop  offset="0.2" style="stop-color:#373D43"/>
					<stop  offset="0.9" style="stop-color:#22272C"/>
				</linearGradient>
				<path class="st17" d="M73.2,143.7c-18.6,0-33.8-15.1-33.8-33.8V82.9c0-18.6,15.1-33.8,33.8-33.8h220.6
					c18.6,0,33.8,15.1,33.8,33.8V110c0,18.6-15.1,33.8-33.8,33.8L73.2,143.7L73.2,143.7z"/>
				
					<linearGradient id="SVGID_14_" gradientUnits="userSpaceOnUse" x1="172.1802" y1="165.1302" x2="194.7615" y2="37.0653" gradientTransform="matrix(1 0 0 -1 0 197.5275)">
					<stop  offset="0.2" style="stop-color:#383E43"/>
					<stop  offset="0.9" style="stop-color:#20252B"/>
				</linearGradient>
				<path class="st18" d="M73.2,142.5c-17.9,0-32.5-14.6-32.5-32.5V82.9c0-17.9,14.6-32.5,32.5-32.5h220.6
					c17.9,0,32.5,14.6,32.5,32.5V110c0,17.9-14.6,32.5-32.5,32.5L73.2,142.5L73.2,142.5z"/>
				
					<linearGradient id="SVGID_15_" gradientUnits="userSpaceOnUse" x1="172.3972" y1="163.8997" x2="194.5445" y2="38.2957" gradientTransform="matrix(1 0 0 -1 0 197.5275)">
					<stop  offset="0.2" style="stop-color:#383E44"/>
					<stop  offset="0.9" style="stop-color:#1F2429"/>
				</linearGradient>
				<path class="st19" d="M73.2,141.2c-17.3,0-31.2-14-31.2-31.2V82.9c0-17.3,14-31.2,31.2-31.2h220.6c17.3,0,31.2,14,31.2,31.2V110
					c0,17.3-14,31.2-31.2,31.2L73.2,141.2L73.2,141.2z"/>
				
					<linearGradient id="SVGID_16_" gradientUnits="userSpaceOnUse" x1="172.6094" y1="162.6676" x2="194.3206" y2="39.5375" gradientTransform="matrix(1 0 0 -1 0 197.5275)">
					<stop  offset="0.2" style="stop-color:#393F44"/>
					<stop  offset="0.9" style="stop-color:#1E2328"/>
				</linearGradient>
				<path class="st20" d="M293.8,140H73.2c-16.6,0-30-13.4-30-30V82.9c0-16.6,13.4-30,30-30h220.6c16.6,0,30,13.4,30,30V110
					C323.8,126.6,310.3,140,293.8,140z"/>
			</g>
			<path class="st21" d="M293.8,140H73.2c-16.6,0-30-13.4-30-30V82.9c0-16.6,13.4-30,30-30h220.6c16.6,0,30,13.4,30,30V110
				C323.8,126.6,310.3,140,293.8,140z"/>
		</g>
		<g>
			<g>
				<path class="st22" d="M91.7,82.6c-2.6-1.4-5.7-1.6-8.4-0.4c-4,1.7-9,5.7-9,14.7c0,10.8,5,18.6,9.2,22.1c1.8,1.5,4.2,2,6.4,1.4
					l5-1.3c1.2-0.3,2.6-0.3,3.8,0l4.3,1.2c2.1,0.6,4.4,0.2,6.2-1.2c2.4-1.8,5.4-5.3,7.6-12.1l0,0c-9.1-3.6-9.9-16.1-1.4-20.8
					l0.2-0.1c0,0-2.3-3.2-7-4.7c-2.4-0.7-4.9-0.5-7.1,0.6l-2.2,1.1c-2.1,1-4.6,1-6.6-0.1L91.7,82.6z"/>
				<path class="st22" d="M95.6,80.3c0,0.2,0,0.5,0,0.8c6.1-0.7,10.8-5.8,10.8-12.1c0-0.2,0-0.5,0-0.8C100.3,68.9,95.6,74,95.6,80.3
					z"/>
			</g>
			<g>
				<path class="st22" d="M149.1,80.4h2.9c0.6,0,1.1,0.1,1.6,0.2s0.9,0.3,1.3,0.7c0.4,0.3,0.7,0.7,0.9,1.2c0.2,0.5,0.3,1.2,0.3,1.9
					s-0.1,1.4-0.3,2s-0.5,1.1-0.9,1.4c-0.4,0.4-0.8,0.7-1.3,0.9c-0.5,0.2-1.1,0.3-1.7,0.3h-2.8L149.1,80.4L149.1,80.4z M150.3,81.4
					V88h1.6c0.4,0,0.8-0.1,1.2-0.2c0.4-0.1,0.7-0.3,0.9-0.6c0.3-0.3,0.5-0.7,0.6-1.1c0.1-0.4,0.2-1,0.2-1.6c0-0.6-0.1-1.1-0.2-1.5
					c-0.1-0.4-0.3-0.7-0.6-0.9s-0.6-0.4-0.9-0.5c-0.4-0.1-0.7-0.1-1.1-0.1L150.3,81.4L150.3,81.4z"/>
				<path class="st22" d="M161.4,89.1c-0.6,0-1.1-0.1-1.6-0.3c-0.5-0.2-0.9-0.5-1.3-0.9s-0.7-0.8-0.9-1.4c-0.2-0.6-0.3-1.2-0.3-1.9
					s0.1-1.3,0.3-1.9s0.5-1,0.9-1.4c0.4-0.4,0.8-0.6,1.3-0.8c0.5-0.2,1-0.3,1.6-0.3c0.6,0,1.1,0.1,1.6,0.3s0.9,0.5,1.3,0.8
					c0.4,0.4,0.6,0.8,0.9,1.4c0.2,0.6,0.3,1.2,0.3,1.9c0,0.7-0.1,1.3-0.3,1.9c-0.2,0.6-0.5,1-0.9,1.4c-0.4,0.4-0.8,0.7-1.3,0.9
					S161.9,89.1,161.4,89.1z M161.4,88.1c0.4,0,0.8-0.1,1.1-0.2c0.4-0.1,0.7-0.3,0.9-0.6s0.5-0.6,0.6-1.1s0.2-1,0.2-1.6
					s-0.1-1.1-0.2-1.6s-0.4-0.8-0.6-1.1c-0.3-0.3-0.6-0.5-0.9-0.6c-0.4-0.1-0.7-0.2-1.1-0.2c-0.4,0-0.8,0.1-1.1,0.2
					c-0.4,0.1-0.7,0.3-0.9,0.6s-0.5,0.6-0.6,1.1s-0.2,1-0.2,1.6s0.1,1.1,0.2,1.6s0.4,0.8,0.6,1.1c0.3,0.3,0.6,0.5,0.9,0.6
					C160.6,88,160.9,88.1,161.4,88.1z"/>
				<path class="st22" d="M166.1,80.4h1.2l1.6,7.6l2-7.6h1.3l1.9,7.4l1.6-7.4h1.1l-1.9,8.6h-1.7l-1.8-7.1l-1.8,7.1H168L166.1,80.4z"
					/>
				<path class="st22" d="M179.2,81.8V89h-1.1v-8.6h1.5l4.3,7.2v-7.2h1.1V89h-1.5L179.2,81.8z"/>
				<path class="st22" d="M187.2,80.4h1.1V88h3.9v1h-5.1V80.4z"/>
				<path class="st22" d="M197.2,89.1c-0.6,0-1.1-0.1-1.6-0.3c-0.5-0.2-0.9-0.5-1.3-0.9s-0.7-0.8-0.9-1.4c-0.2-0.6-0.3-1.2-0.3-1.9
					s0.1-1.3,0.3-1.9s0.5-1,0.9-1.4c0.4-0.4,0.8-0.6,1.3-0.8c0.5-0.2,1-0.3,1.6-0.3c0.6,0,1.1,0.1,1.6,0.3s0.9,0.5,1.3,0.8
					c0.4,0.4,0.6,0.8,0.9,1.4c0.2,0.6,0.3,1.2,0.3,1.9c0,0.7-0.1,1.3-0.3,1.9c-0.2,0.6-0.5,1-0.9,1.4c-0.4,0.4-0.8,0.7-1.3,0.9
					S197.8,89.1,197.2,89.1z M197.2,88.1c0.4,0,0.8-0.1,1.1-0.2c0.4-0.1,0.7-0.3,0.9-0.6s0.5-0.6,0.6-1.1s0.2-1,0.2-1.6
					s-0.1-1.1-0.2-1.6s-0.4-0.8-0.6-1.1c-0.3-0.3-0.6-0.5-0.9-0.6c-0.4-0.1-0.7-0.2-1.1-0.2c-0.4,0-0.8,0.1-1.1,0.2
					c-0.4,0.1-0.7,0.3-0.9,0.6s-0.5,0.6-0.6,1.1s-0.2,1-0.2,1.6s0.1,1.1,0.2,1.6s0.4,0.8,0.6,1.1c0.3,0.3,0.6,0.5,0.9,0.6
					C196.4,88,196.8,88.1,197.2,88.1z"/>
				<path class="st22" d="M207.1,86.5h-3.4l-0.8,2.5h-1.1l2.8-8.6h1.7l2.8,8.6H208L207.1,86.5z M205.4,81.3l-1.4,4.2h2.8L205.4,81.3
					z"/>
				<path class="st22" d="M210.5,80.4h2.9c0.6,0,1.1,0.1,1.6,0.2s0.9,0.3,1.3,0.7c0.4,0.3,0.7,0.7,0.9,1.2c0.2,0.5,0.3,1.2,0.3,1.9
					s-0.1,1.4-0.3,2s-0.5,1.1-0.9,1.4c-0.4,0.4-0.8,0.7-1.3,0.9c-0.5,0.2-1.1,0.3-1.7,0.3h-2.8L210.5,80.4L210.5,80.4z M211.7,81.4
					V88h1.6c0.4,0,0.8-0.1,1.2-0.2c0.4-0.1,0.7-0.3,0.9-0.6c0.3-0.3,0.5-0.7,0.6-1.1c0.1-0.4,0.2-1,0.2-1.6c0-0.6-0.1-1.1-0.2-1.5
					c-0.1-0.4-0.3-0.7-0.6-0.9s-0.6-0.4-0.9-0.5c-0.4-0.1-0.7-0.1-1.1-0.1L211.7,81.4L211.7,81.4z"/>
				<path class="st22" d="M225.1,89.1c-0.6,0-1.1-0.1-1.6-0.3c-0.5-0.2-0.9-0.5-1.3-0.9s-0.7-0.8-0.9-1.4c-0.2-0.6-0.3-1.2-0.3-1.9
					s0.1-1.3,0.3-1.9s0.5-1,0.9-1.4c0.4-0.4,0.8-0.6,1.3-0.8c0.5-0.2,1-0.3,1.6-0.3c0.6,0,1.1,0.1,1.6,0.3s0.9,0.5,1.3,0.8
					c0.4,0.4,0.6,0.8,0.9,1.4c0.2,0.6,0.3,1.2,0.3,1.9c0,0.7-0.1,1.3-0.3,1.9c-0.2,0.6-0.5,1-0.9,1.4c-0.4,0.4-0.8,0.7-1.3,0.9
					S225.7,89.1,225.1,89.1z M225.1,88.1c0.4,0,0.8-0.1,1.1-0.2c0.4-0.1,0.7-0.3,0.9-0.6s0.5-0.6,0.6-1.1s0.2-1,0.2-1.6
					s-0.1-1.1-0.2-1.6s-0.4-0.8-0.6-1.1c-0.3-0.3-0.6-0.5-0.9-0.6c-0.4-0.1-0.7-0.2-1.1-0.2c-0.4,0-0.8,0.1-1.1,0.2
					c-0.4,0.1-0.7,0.3-0.9,0.6s-0.5,0.6-0.6,1.1s-0.2,1-0.2,1.6s0.1,1.1,0.2,1.6s0.4,0.8,0.6,1.1c0.3,0.3,0.6,0.5,0.9,0.6
					C224.3,88,224.7,88.1,225.1,88.1z"/>
				<path class="st22" d="M231.9,81.8V89h-1.1v-8.6h1.5l4.3,7.2v-7.2h1.1V89h-1.5L231.9,81.8z"/>
				<path class="st22" d="M245.3,81.4V89h-1.1v-7.6h-2.5v-1h6.2v1H245.3z"/>
				<path class="st22" d="M254.9,85.2h-4.4V89h-1.1v-8.6h1.1v3.8h4.4v-3.8h1.1V89h-1.1L254.9,85.2L254.9,85.2z"/>
				<path class="st22" d="M258.1,80.4h5v1h-3.8V84h3.3v1h-3.3V88h3.9v1h-5V80.4z"/>
				<path class="st22" d="M160.7,108.5h-7.8l-1.8,5.5h-2.4l6.3-19.3h3.8l6.4,19.3h-2.7L160.7,108.5z M156.8,96.7l-3.1,9.5h6.3
					L156.8,96.7z"/>
				<path class="st22" d="M175,114.3c-1.1,0-2-0.2-2.8-0.8c-0.8-0.5-1.4-1.2-1.9-2.1v7.3H168V100h2.1l0.2,2.8
					c0.5-0.9,1.1-1.7,1.9-2.2c0.8-0.6,1.8-0.8,2.9-0.8c0.8,0,1.6,0.2,2.3,0.4c0.8,0.3,1.4,0.8,2,1.3s1,1.4,1.4,2.3
					c0.3,0.9,0.5,2,0.5,3.2c0,1.2-0.2,2.3-0.5,3.2s-0.8,1.7-1.4,2.3c-0.6,0.6-1.2,1.1-2,1.3C176.6,114.1,175.9,114.3,175,114.3z
					 M174.7,112.2c1.2,0,2.2-0.4,3-1.3c0.8-0.9,1.1-2.2,1.1-3.9c0-1.7-0.4-3-1.1-3.9c-0.8-0.9-1.8-1.3-3-1.3c-0.6,0-1.2,0.1-1.7,0.3
					c-0.5,0.2-1,0.5-1.4,1s-0.7,1-0.9,1.6s-0.3,1.4-0.3,2.3c0,0.9,0.1,1.6,0.3,2.3c0.2,0.7,0.5,1.2,0.9,1.6s0.9,0.8,1.4,1
					C173.5,112.1,174.1,112.2,174.7,112.2z"/>
				<path class="st22" d="M191.6,114.3c-1.1,0-2-0.2-2.8-0.8c-0.8-0.5-1.4-1.2-1.9-2.1v7.3h-2.4V100h2.1l0.2,2.8
					c0.5-0.9,1.1-1.7,1.9-2.2c0.8-0.6,1.8-0.8,2.9-0.8c0.8,0,1.6,0.2,2.3,0.4c0.8,0.3,1.4,0.8,2,1.3s1,1.4,1.4,2.3
					c0.3,0.9,0.5,2,0.5,3.2c0,1.2-0.2,2.3-0.5,3.2s-0.8,1.7-1.4,2.3c-0.6,0.6-1.2,1.1-2,1.3C193.2,114.1,192.4,114.3,191.6,114.3z
					 M191.2,112.2c1.2,0,2.2-0.4,3-1.3c0.8-0.9,1.1-2.2,1.1-3.9c0-1.7-0.4-3-1.1-3.9c-0.8-0.9-1.8-1.3-3-1.3c-0.6,0-1.2,0.1-1.7,0.3
					c-0.5,0.2-1,0.5-1.4,1s-0.7,1-0.9,1.6s-0.3,1.4-0.3,2.3c0,0.9,0.1,1.6,0.3,2.3c0.2,0.7,0.5,1.2,0.9,1.6s0.9,0.8,1.4,1
					C190,112.1,190.6,112.2,191.2,112.2z"/>
				<path class="st22" d="M203.4,94.7V114H201V94.7H203.4z"/>
				<path class="st22" d="M218.7,112.8c-0.2,0.1-0.4,0.3-0.7,0.5c-0.3,0.2-0.6,0.3-1.1,0.5c-0.4,0.2-0.9,0.3-1.4,0.4
					s-1.1,0.2-1.8,0.2c-2.4,0-4.1-0.6-5.4-1.9s-1.8-3.1-1.8-5.4c0-1.1,0.2-2.2,0.5-3.1s0.8-1.7,1.4-2.3c0.6-0.6,1.3-1.1,2.1-1.4
					c0.8-0.3,1.7-0.5,2.7-0.5c1,0,1.9,0.2,2.7,0.5c0.8,0.3,1.4,0.8,2,1.5c0.5,0.7,0.9,1.5,1.1,2.5s0.2,2.1,0,3.4H209
					c0.1,1.5,0.6,2.6,1.4,3.4s2,1.1,3.5,1.1c1,0,1.8-0.2,2.5-0.5s1.3-0.6,1.7-1L218.7,112.8z M213.1,101.8c-1,0-1.9,0.3-2.7,0.9
					c-0.7,0.6-1.2,1.6-1.4,2.9h7.5c0-0.7,0-1.2-0.2-1.7s-0.4-0.9-0.7-1.2c-0.3-0.3-0.7-0.6-1.1-0.7
					C214.1,101.9,213.7,101.8,213.1,101.8z"/>
				<path class="st22" d="M233.1,114.3c-0.7,0-1.4-0.1-2.1-0.2s-1.3-0.3-1.8-0.4s-1.1-0.4-1.5-0.6c-0.4-0.2-0.8-0.4-1.1-0.7l0.4-2.4
					c0.3,0.2,0.6,0.4,1,0.7c0.4,0.2,0.9,0.4,1.4,0.7c0.5,0.2,1.1,0.4,1.7,0.5s1.2,0.2,1.9,0.2c1.4,0,2.5-0.3,3.4-0.8
					c0.8-0.5,1.2-1.3,1.2-2.4c0-0.5-0.1-1-0.3-1.3s-0.5-0.7-0.9-0.9c-0.4-0.2-0.9-0.4-1.4-0.6c-0.6-0.2-1.2-0.4-2-0.6
					c-0.8-0.2-1.5-0.4-2.3-0.7c-0.8-0.2-1.4-0.6-2-1c-0.6-0.4-1.1-0.9-1.5-1.6c-0.4-0.6-0.6-1.4-0.6-2.4c0-1.7,0.6-3,1.7-3.9
					s2.9-1.4,5.2-1.4c0.7,0,1.4,0,2,0.1s1.1,0.2,1.5,0.3s0.8,0.2,1.1,0.4s0.6,0.3,0.8,0.4l-0.3,2.5c-0.6-0.4-1.4-0.8-2.2-1
					s-1.8-0.4-2.9-0.4c-0.8,0-1.5,0.1-2.1,0.2c-0.6,0.1-1,0.3-1.4,0.6s-0.6,0.6-0.8,0.9c-0.1,0.4-0.2,0.8-0.2,1.2
					c0,0.5,0.1,1,0.4,1.3c0.2,0.4,0.6,0.7,1,0.9c0.4,0.2,0.9,0.4,1.4,0.6s1.1,0.3,1.6,0.4c0.8,0.2,1.5,0.4,2.3,0.6
					c0.8,0.2,1.5,0.5,2.1,1c0.6,0.4,1.1,0.9,1.6,1.6c0.4,0.7,0.6,1.5,0.6,2.6c0,1-0.2,1.9-0.6,2.6c-0.4,0.7-0.9,1.3-1.6,1.7
					s-1.4,0.8-2.3,1C234.9,114.2,234,114.3,233.1,114.3z"/>
				<path class="st22" d="M249.5,114.1c-0.5,0.1-1.1,0.2-1.6,0.2c-0.7,0-1.3-0.1-1.8-0.3c-0.5-0.2-0.9-0.5-1.2-0.8
					c-0.3-0.3-0.5-0.7-0.7-1.1s-0.2-0.9-0.2-1.3V102h-1.7v-2h1.7V97h2.4v2.9h4.1v2h-4.1v8.4c0,0.6,0.1,1,0.4,1.3
					c0.3,0.3,0.7,0.4,1.3,0.4c0.4,0,0.7-0.1,1.1-0.2s0.7-0.2,1-0.4l0.4,2C250.5,113.8,250.1,113.9,249.5,114.1z"/>
				<path class="st22" d="M259.5,114.3c-1,0-1.9-0.2-2.7-0.5c-0.8-0.3-1.5-0.8-2.1-1.4c-0.6-0.6-1.1-1.4-1.4-2.3s-0.5-1.9-0.5-3.1
					c0-1.2,0.2-2.2,0.5-3.1c0.3-0.9,0.8-1.7,1.4-2.3c0.6-0.6,1.3-1.1,2.1-1.4s1.7-0.5,2.7-0.5c1,0,1.9,0.2,2.7,0.5
					c0.8,0.3,1.5,0.8,2.1,1.4c0.6,0.6,1.1,1.4,1.4,2.3c0.4,0.9,0.5,1.9,0.5,3.1c0,1.2-0.2,2.2-0.5,3.1c-0.4,0.9-0.8,1.7-1.4,2.3
					c-0.6,0.6-1.3,1.1-2.1,1.4C261.3,114.1,260.4,114.3,259.5,114.3z M259.5,112.2c0.6,0,1.2-0.1,1.8-0.3s1-0.5,1.4-0.9
					c0.4-0.4,0.7-1,0.9-1.6c0.2-0.7,0.3-1.4,0.3-2.3s-0.1-1.7-0.3-2.3s-0.5-1.2-0.9-1.6s-0.9-0.7-1.4-0.9s-1.1-0.3-1.8-0.3
					s-1.2,0.1-1.7,0.3c-0.5,0.2-1,0.5-1.4,0.9c-0.4,0.4-0.7,1-0.9,1.6c-0.2,0.7-0.3,1.4-0.3,2.3s0.1,1.7,0.3,2.3
					c0.2,0.7,0.5,1.2,0.9,1.6c0.4,0.4,0.8,0.7,1.4,0.9C258.2,112.1,258.8,112.2,259.5,112.2z"/>
				<path class="st22" d="M273.6,103.1c-0.8,0.4-1.4,1.1-1.8,2v8.9h-2.4v-14h2.1l0.2,3.1h0c0.4-0.8,1-1.6,1.7-2.2
					c0.8-0.6,1.7-1,2.9-1.2v2.7C275.4,102.4,274.4,102.7,273.6,103.1z"/>
				<path class="st22" d="M290.3,112.8c-0.2,0.1-0.5,0.3-0.7,0.5c-0.3,0.2-0.6,0.3-1.1,0.5c-0.4,0.2-0.9,0.3-1.4,0.4
					s-1.1,0.2-1.8,0.2c-2.4,0-4.1-0.6-5.4-1.9s-1.8-3.1-1.8-5.4c0-1.1,0.2-2.2,0.5-3.1s0.8-1.7,1.4-2.3c0.6-0.6,1.3-1.1,2.1-1.4
					s1.7-0.5,2.7-0.5c1,0,1.9,0.2,2.7,0.5c0.8,0.3,1.4,0.8,2,1.5c0.5,0.7,0.9,1.5,1,2.5s0.2,2.1,0,3.4h-9.9c0.1,1.5,0.5,2.6,1.4,3.4
					c0.8,0.8,2,1.1,3.5,1.1c1,0,1.8-0.2,2.5-0.5c0.7-0.3,1.3-0.6,1.7-1L290.3,112.8z M284.7,101.8c-1,0-1.9,0.3-2.7,0.9
					c-0.7,0.6-1.2,1.6-1.4,2.9h7.5c0-0.7,0-1.2-0.2-1.7s-0.4-0.9-0.7-1.2c-0.3-0.3-0.7-0.6-1.1-0.7
					C285.7,101.9,285.2,101.8,284.7,101.8z"/>
			</g>
		</g>
	</g>
</g>
<g class="st2">
	<g class="st3">
		<g>
			
				<linearGradient id="SVGID_17_" gradientUnits="userSpaceOnUse" x1="101.1833" y1="2454.4092" x2="69.2113" y2="2486.3813" gradientTransform="matrix(1 0 0 1 0 -2381.5276)">
				<stop  offset="0" style="stop-color:#5A9EFB"/>
				<stop  offset="6.574450e-03" style="stop-color:#5A9FFB"/>
				<stop  offset="0.2601" style="stop-color:#6BBCFC"/>
				<stop  offset="0.5122" style="stop-color:#76D0FC"/>
				<stop  offset="0.7604" style="stop-color:#7DDDFD"/>
				<stop  offset="1" style="stop-color:#80E1FD"/>
			</linearGradient>
			<path class="st23" d="M79.5,70.6c-0.6,0.6-0.9,1.5-0.9,2.7v42.1c0,1.2,0.3,2.1,0.9,2.7l0.1,0.1l23.6-23.6v-0.3v-0.3L79.7,70.5
				L79.5,70.6z"/>
			
				<linearGradient id="SVGID_18_" gradientUnits="userSpaceOnUse" x1="124.111" y1="2475.9175" x2="78.0144" y2="2475.9175" gradientTransform="matrix(1 0 0 1 0 -2381.5276)">
				<stop  offset="0" style="stop-color:#F5DE34"/>
				<stop  offset="0.4087" style="stop-color:#EDBB2C"/>
				<stop  offset="0.7754" style="stop-color:#E8A326"/>
				<stop  offset="1" style="stop-color:#E79A24"/>
			</linearGradient>
			<path class="st24" d="M111.1,102.5l-7.9-7.9v-0.3v-0.3l7.9-7.9l0.2,0.1l9.3,5.3c2.7,1.5,2.7,4,0,5.5l-9.3,5.3L111.1,102.5z"/>
			
				<linearGradient id="SVGID_19_" gradientUnits="userSpaceOnUse" x1="106.9528" y1="2480.2949" x2="63.596" y2="2523.6516" gradientTransform="matrix(1 0 0 1 0 -2381.5276)">
				<stop  offset="0" style="stop-color:#DC3D45"/>
				<stop  offset="1" style="stop-color:#A61860"/>
			</linearGradient>
			<path class="st25" d="M103.3,94.4l-23.7,23.7c0.9,0.9,2.3,1,4,0.1l27.8-15.8L103.3,94.4z"/>
			
				<linearGradient id="SVGID_20_" gradientUnits="userSpaceOnUse" x1="73.5532" y1="2438.1558" x2="92.9137" y2="2457.5161" gradientTransform="matrix(1 0 0 1 0 -2381.5276)">
				<stop  offset="0" style="stop-color:#629E73"/>
				<stop  offset="6.850000e-02" style="stop-color:#64A473"/>
				<stop  offset="0.4762" style="stop-color:#76CD79"/>
				<stop  offset="0.8009" style="stop-color:#81E57C"/>
				<stop  offset="1" style="stop-color:#86EF7D"/>
			</linearGradient>
			<path class="st26" d="M111.3,86.3L83.5,70.5c-1.6-0.9-3.1-0.8-4,0.1l23.7,23.7L111.3,86.3z"/>
			<g>
				<path class="st27" d="M111.2,102.3L83.5,118c-1.6,0.9-2.9,0.8-3.8,0l0,0l-0.1,0.1l0,0l0.1,0.1l0,0c0.9,0.8,2.3,0.9,3.8,0
					l27.8-15.8L111.2,102.3z"/>
				<path class="st28" d="M79.5,117.9c-0.6-0.6-0.9-1.5-0.9-2.7v0.3c0,1.2,0.3,2.1,0.9,2.7l0.1-0.1L79.5,117.9z"/>
			</g>
			<path class="st28" d="M120.6,96.9l-9.5,5.4l0.2,0.2l9.3-5.3c1.3-0.8,2-1.8,2-2.8l0,0C122.5,95.3,121.8,96.2,120.6,96.9z"/>
			<path class="st29" d="M83.5,70.8l37.2,21.1c1.2,0.7,1.9,1.6,2,2.5l0,0c0-1-0.7-2-2-2.8L83.5,70.5c-2.7-1.5-4.8-0.3-4.8,2.8v0.3
				C78.7,70.6,80.8,69.3,83.5,70.8z"/>
		</g>
		<g>
			<path class="st22" d="M158.4,85c-0.1,0.4-0.4,0.8-0.7,1.1c-0.3,0.3-0.7,0.6-1.1,0.7c-0.5,0.2-1,0.3-1.6,0.3
				c-0.6,0-1.2-0.1-1.7-0.3c-0.5-0.2-0.9-0.5-1.3-0.9s-0.6-0.8-0.8-1.4s-0.3-1.2-0.3-1.8c0-0.7,0.1-1.3,0.3-1.8
				c0.2-0.5,0.5-1,0.9-1.4c0.4-0.4,0.8-0.7,1.4-0.9c0.6-0.2,1.2-0.3,1.9-0.3c0.6,0,1.2,0.1,1.6,0.2c0.5,0.1,0.8,0.3,1.1,0.5
				l-0.2,1.1c-0.4-0.3-0.8-0.4-1.2-0.6c-0.4-0.1-0.9-0.2-1.4-0.2c-0.5,0-1,0.1-1.4,0.2c-0.4,0.2-0.7,0.4-1,0.7
				c-0.3,0.3-0.4,0.7-0.6,1.1s-0.2,0.9-0.2,1.4c0,1.1,0.2,1.9,0.8,2.5c0.5,0.6,1.2,0.9,2.1,0.9c0.4,0,0.8-0.1,1.1-0.2
				c0.3-0.1,0.6-0.3,0.8-0.5c0.2-0.2,0.4-0.4,0.4-0.7c0.1-0.3,0.1-0.6,0.1-0.9v-0.2h-2.8v-1h3.9v1.1C158.6,84.1,158.5,84.6,158.4,85
				z"/>
			<path class="st22" d="M160.3,78.4h5v1h-3.8V82h3.3v1h-3.3v2.9h3.9v1h-5V78.4z"/>
			<path class="st22" d="M170.2,79.4V87H169v-7.6h-2.5v-1h6.2v1H170.2z"/>
			<path class="st22" d="M177.7,78.4V87h-1.1v-8.6C176.6,78.4,177.7,78.4,177.7,78.4z"/>
			<path class="st22" d="M182.9,79.4V87h-1.1v-7.6h-2.5v-1h6.2v1H182.9z"/>
			<path class="st22" d="M192.8,87.1c-0.6,0-1.1-0.1-1.6-0.3c-0.5-0.2-0.9-0.5-1.3-0.9s-0.7-0.8-0.9-1.4c-0.2-0.6-0.3-1.2-0.3-1.9
				s0.1-1.3,0.3-1.9s0.5-1,0.9-1.4c0.4-0.4,0.8-0.6,1.3-0.8c0.5-0.2,1-0.3,1.6-0.3c0.6,0,1.1,0.1,1.6,0.3s0.9,0.5,1.3,0.8
				c0.4,0.4,0.6,0.8,0.9,1.4c0.2,0.6,0.3,1.2,0.3,1.9c0,0.7-0.1,1.3-0.3,1.9c-0.2,0.6-0.5,1-0.9,1.4c-0.4,0.4-0.8,0.7-1.3,0.9
				C194,87,193.4,87.1,192.8,87.1z M192.8,86.1c0.4,0,0.8-0.1,1.1-0.2c0.4-0.1,0.7-0.3,0.9-0.6s0.5-0.6,0.6-1.1s0.2-1,0.2-1.6
				c0-0.6-0.1-1.1-0.2-1.6s-0.4-0.8-0.6-1.1c-0.3-0.3-0.6-0.5-0.9-0.6c-0.4-0.1-0.7-0.2-1.1-0.2c-0.4,0-0.8,0.1-1.1,0.2
				c-0.4,0.1-0.7,0.3-0.9,0.6s-0.5,0.6-0.6,1.1s-0.2,1-0.2,1.6c0,0.6,0.1,1.1,0.2,1.6s0.4,0.8,0.6,1.1c0.3,0.3,0.6,0.5,0.9,0.6
				C192,86,192.4,86.1,192.8,86.1z"/>
			<path class="st22" d="M199.6,79.7V87h-1.1v-8.6h1.5l4.3,7.2v-7.2h1.1V87H204L199.6,79.7z"/>
			<path class="st22" d="M168.5,107.5c-0.3,0.9-0.8,1.8-1.5,2.5c-0.7,0.7-1.5,1.2-2.6,1.7c-1,0.4-2.2,0.6-3.7,0.6
				c-1.4,0-2.6-0.2-3.8-0.7s-2.1-1.2-2.9-2s-1.4-1.9-1.9-3.1c-0.4-1.2-0.7-2.6-0.7-4.1c0-1.5,0.2-2.8,0.6-4.1
				c0.4-1.2,1.1-2.3,1.9-3.1c0.8-0.9,1.9-1.5,3.1-2c1.2-0.5,2.7-0.7,4.3-0.7c1.4,0,2.6,0.2,3.7,0.5c1,0.3,1.9,0.7,2.6,1.1l-0.4,2.5
				c-0.8-0.6-1.7-1-2.7-1.3c-1-0.3-2.1-0.5-3.2-0.5c-1.2,0-2.3,0.2-3.2,0.5c-0.9,0.3-1.6,0.8-2.2,1.5c-0.6,0.7-1,1.5-1.3,2.4
				c-0.3,0.9-0.4,2-0.4,3.2c0,2.4,0.6,4.3,1.7,5.6s2.7,2,4.8,2c1,0,1.9-0.1,2.6-0.4s1.3-0.6,1.8-1.1s0.8-1,1-1.7s0.3-1.3,0.3-2.1
				v-0.5h-6.2v-2.3h8.9v2.5C169,105.5,168.9,106.5,168.5,107.5z"/>
			<path class="st22" d="M178.6,112.2c-0.9,0-1.9-0.2-2.7-0.5c-0.8-0.3-1.5-0.8-2.1-1.4c-0.6-0.6-1.1-1.4-1.4-2.3s-0.5-1.9-0.5-3.1
				c0-1.2,0.2-2.2,0.5-3.1c0.3-0.9,0.8-1.7,1.4-2.3c0.6-0.6,1.3-1.1,2.1-1.4c0.8-0.3,1.7-0.5,2.7-0.5c1,0,1.9,0.2,2.7,0.5
				c0.8,0.3,1.5,0.8,2.1,1.4c0.6,0.6,1.1,1.4,1.4,2.3c0.4,0.9,0.5,1.9,0.5,3.1c0,1.2-0.2,2.2-0.5,3.1c-0.4,0.9-0.8,1.7-1.4,2.3
				c-0.6,0.6-1.3,1.1-2.1,1.4C180.4,112.1,179.5,112.2,178.6,112.2z M178.6,110.1c0.6,0,1.2-0.1,1.8-0.3s1-0.5,1.4-0.9
				c0.4-0.4,0.7-1,0.9-1.6c0.2-0.7,0.3-1.4,0.3-2.3s-0.1-1.7-0.3-2.3s-0.5-1.2-0.9-1.6s-0.9-0.7-1.4-0.9s-1.1-0.3-1.8-0.3
				s-1.2,0.1-1.7,0.3c-0.5,0.2-1,0.5-1.4,0.9c-0.4,0.4-0.7,1-0.9,1.6c-0.2,0.7-0.3,1.4-0.3,2.3s0.1,1.7,0.3,2.3
				c0.2,0.7,0.5,1.2,0.9,1.6c0.4,0.4,0.8,0.7,1.4,0.9C177.4,110,177.9,110.1,178.6,110.1z"/>
			<path class="st22" d="M194.3,112.2c-0.9,0-1.9-0.2-2.7-0.5c-0.8-0.3-1.5-0.8-2.1-1.4c-0.6-0.6-1.1-1.4-1.4-2.3s-0.5-1.9-0.5-3.1
				c0-1.2,0.2-2.2,0.5-3.1c0.3-0.9,0.8-1.7,1.4-2.3c0.6-0.6,1.3-1.1,2.1-1.4c0.8-0.3,1.7-0.5,2.7-0.5c1,0,1.9,0.2,2.7,0.5
				c0.8,0.3,1.5,0.8,2.1,1.4c0.6,0.6,1.1,1.4,1.4,2.3c0.4,0.9,0.5,1.9,0.5,3.1c0,1.2-0.2,2.2-0.5,3.1c-0.4,0.9-0.8,1.7-1.4,2.3
				c-0.6,0.6-1.3,1.1-2.1,1.4C196.2,112.1,195.3,112.2,194.3,112.2z M194.3,110.1c0.6,0,1.2-0.1,1.8-0.3s1-0.5,1.4-0.9
				c0.4-0.4,0.7-1,0.9-1.6c0.2-0.7,0.3-1.4,0.3-2.3s-0.1-1.7-0.3-2.3s-0.5-1.2-0.9-1.6s-0.9-0.7-1.4-0.9s-1.1-0.3-1.8-0.3
				s-1.2,0.1-1.7,0.3c-0.5,0.2-1,0.5-1.4,0.9c-0.4,0.4-0.7,1-0.9,1.6c-0.2,0.7-0.3,1.4-0.3,2.3s0.1,1.7,0.3,2.3
				c0.2,0.7,0.5,1.2,0.9,1.6c0.4,0.4,0.8,0.7,1.4,0.9C193.1,110,193.6,110.1,194.3,110.1z"/>
			<path class="st22" d="M209.2,116.8c-1.3,0-2.4-0.1-3.2-0.3c-0.8-0.2-1.4-0.4-1.8-0.7l0.5-2.2c0.4,0.2,1,0.5,1.8,0.7
				c0.7,0.2,1.7,0.3,2.8,0.3c1.8,0,3-0.3,3.7-1.1c0.7-0.7,1.1-1.7,1.1-3v-2c-0.4,0.8-1,1.5-1.7,2c-0.8,0.5-1.7,0.8-2.8,0.8
				c-0.8,0-1.6-0.1-2.4-0.4c-0.8-0.3-1.4-0.7-2-1.3c-0.6-0.6-1-1.3-1.4-2.1s-0.5-1.8-0.5-3c0-1.2,0.2-2.2,0.5-3s0.8-1.6,1.4-2.2
				s1.2-1,2-1.3c0.8-0.3,1.6-0.4,2.4-0.4c1.1,0,2.1,0.2,2.8,0.8c0.8,0.5,1.4,1.2,1.8,2.1l0-0.3c0-0.3,0-0.7,0.1-1.2
				c0-0.5,0.1-0.8,0.1-1.1h2.1c0,0.2-0.1,0.6-0.1,1.1c0,0.5,0,0.9,0,1.2v10.4c0,0.9-0.1,1.7-0.4,2.5c-0.3,0.8-0.7,1.4-1.3,1.9
				s-1.3,1-2.2,1.3C211.5,116.6,210.4,116.8,209.2,116.8z M209.9,109.3c0.6,0,1.1-0.1,1.6-0.3c0.5-0.2,0.9-0.5,1.3-0.9
				c0.4-0.4,0.7-0.9,0.9-1.5c0.2-0.6,0.3-1.3,0.3-2.1c0-0.8-0.1-1.5-0.3-2.1c-0.2-0.6-0.5-1.1-0.9-1.5c-0.4-0.4-0.8-0.7-1.3-0.9
				s-1-0.3-1.6-0.3c-0.6,0-1.1,0.1-1.7,0.3c-0.5,0.2-1,0.5-1.3,0.9c-0.4,0.4-0.7,0.9-0.9,1.5s-0.3,1.3-0.3,2.1
				c0,0.8,0.1,1.5,0.3,2.1c0.2,0.6,0.5,1.1,0.9,1.5s0.8,0.7,1.3,0.9C208.8,109.2,209.3,109.3,209.9,109.3z"/>
			<path class="st22" d="M222.9,92.6V112h-2.4V92.6H222.9z"/>
			<path class="st22" d="M238.3,110.8c-0.2,0.1-0.4,0.3-0.7,0.5c-0.3,0.2-0.6,0.3-1.1,0.5c-0.4,0.2-0.9,0.3-1.4,0.4
				s-1.1,0.2-1.8,0.2c-2.4,0-4.1-0.6-5.4-1.9s-1.8-3.1-1.8-5.4c0-1.1,0.2-2.2,0.5-3.1s0.8-1.7,1.4-2.3c0.6-0.6,1.3-1.1,2.1-1.4
				c0.8-0.3,1.7-0.5,2.7-0.5c1,0,1.9,0.2,2.7,0.5c0.8,0.3,1.4,0.8,2,1.5c0.5,0.7,0.9,1.5,1.1,2.5s0.2,2.1,0,3.4h-9.9
				c0.1,1.5,0.6,2.6,1.4,3.4s2,1.1,3.5,1.1c1,0,1.8-0.2,2.5-0.5s1.3-0.6,1.7-1L238.3,110.8z M232.7,99.8c-1,0-1.9,0.3-2.7,0.9
				c-0.7,0.6-1.2,1.6-1.4,2.9h7.5c0-0.7,0-1.2-0.2-1.7s-0.4-0.9-0.7-1.2c-0.3-0.3-0.7-0.6-1.1-0.7C233.7,99.9,233.2,99.8,232.7,99.8
				z"/>
			<path class="st22" d="M249.9,104.4v7.5h-2.6V92.6h5.6c2.2,0,3.9,0.4,5.1,1.4s1.8,2.3,1.8,4.2c0,1.1-0.2,2-0.5,2.8
				s-0.8,1.4-1.5,1.9s-1.4,0.9-2.3,1.1s-1.8,0.3-2.9,0.3H249.9z M249.9,94.9v7.2h2.9c0.7,0,1.3-0.1,1.9-0.2c0.6-0.1,1-0.4,1.4-0.7
				c0.4-0.3,0.7-0.7,0.9-1.2c0.2-0.5,0.3-1.1,0.3-1.8c0-1.2-0.4-2-1.1-2.5c-0.8-0.5-1.8-0.8-3.2-0.8L249.9,94.9L249.9,94.9z"/>
			<path class="st22" d="M265.6,92.6V112h-2.4V92.6H265.6z"/>
			<path class="st22" d="M277.8,109.6c-0.2,0.3-0.4,0.6-0.7,0.9c-0.3,0.3-0.6,0.6-1,0.8c-0.4,0.2-0.8,0.4-1.3,0.6
				c-0.5,0.2-1.1,0.2-1.7,0.2c-1.3,0-2.3-0.4-3-1.1s-1.2-1.7-1.2-3.1c0-3,2.2-4.6,6.8-4.6h2v-1.1c0-1-0.3-1.7-0.8-2.1
				c-0.5-0.4-1.4-0.6-2.5-0.6c-0.9,0-1.7,0.1-2.4,0.3c-0.7,0.2-1.3,0.5-1.9,0.8l-0.6-2c0.5-0.3,1.2-0.6,2-0.9c0.9-0.3,1.9-0.4,3-0.4
				c1.8,0,3.2,0.4,4.1,1.1c1,0.7,1.4,1.9,1.4,3.4v7.5c0,0.2,0,0.3,0,0.6c0,0.2,0,0.4,0,0.6c0,0.2,0,0.4,0,0.6c0,0.2,0,0.3,0,0.5H278
				c0-0.2-0.1-0.6-0.1-1.1S277.8,110,277.8,109.6L277.8,109.6z M273.6,110.1c0.5,0,1-0.1,1.4-0.2c0.4-0.1,0.8-0.3,1.1-0.6
				c0.3-0.2,0.6-0.5,0.9-0.8c0.3-0.3,0.5-0.5,0.7-0.8v-2.3h-1.8c-1.7,0-2.9,0.2-3.6,0.7c-0.7,0.4-1,1.1-1,1.9c0,0.6,0.2,1.2,0.6,1.6
				C272.1,109.9,272.8,110.1,273.6,110.1z"/>
			<path class="st22" d="M284.9,117c-0.3,0-0.6,0-0.9-0.1c-0.3,0-0.5-0.1-0.6-0.2l0.3-2.1c0.1,0,0.2,0.1,0.4,0.1s0.4,0.1,0.7,0.1
				c0.7,0,1.2-0.2,1.6-0.5c0.4-0.3,0.8-0.8,1.2-1.5l-5.4-15h2.6l4.1,11.9l4.2-11.9h2.3l-4.9,13.8c-0.6,1.7-1.4,3-2.2,3.9
				C287.5,116.6,286.4,117,284.9,117z"/>
		</g>
	</g>
</g>
</svg>
