<?xml version="1.0" encoding="utf-8"?>
<!-- Generator: Adobe Illustrator 24.2.1, SVG Export Plug-In . SVG Version: 6.00 Build 0)  -->
<svg version="1.1" id="Layer_1" xmlns="http://www.w3.org/2000/svg" xmlns:xlink="http://www.w3.org/1999/xlink" x="0px" y="0px"
	 viewBox="0 0 1920 1080" style="enable-background:new 0 0 1920 1080;" xml:space="preserve">
<style type="text/css">
	.st0{fill:#202020;}
</style>
<g>
	<path d="M1004.21,579.63c3.19,0,6,0.17,8.77-0.04c5.39-0.4,9.21-4.65,9.27-10.08c0.03-2.64,0.07-5.28,0-7.92
		c-0.13-5.46-4.32-9.67-9.78-9.82c-2.63-0.07-5.26-0.01-8.12-0.01c-0.09,1.23-0.13,2.32-0.27,3.39c-0.3,2.35-1.54,4.03-3.85,4.7
		c-2.11,0.61-4.08,0.1-5.38-1.65c-0.76-1.02-1.25-2.44-1.35-3.72c-0.2-2.62-0.11-5.28-0.06-7.91c0.07-3.25,2.15-5.4,5.41-5.5
		c3.75-0.11,7.51-0.17,11.26-0.06c6.28,0.18,11.19-4.48,10.85-10.99c-0.09-1.83,0.07-3.69-0.2-5.5c-0.7-4.75-4.61-8.18-9.39-8.34
		c-2.3-0.08-4.61-0.01-7.23-0.01c0,1.8,0.01,3.38,0,4.96c-0.02,2.4,0.07,4.81-0.13,7.19c-0.2,2.47-2.15,4.36-4.44,4.69
		c-2.48,0.35-4.8-0.96-5.74-3.36c-0.28-0.72-0.37-1.55-0.37-2.33c-0.03-5.36,0.13-10.72-0.05-16.07c-0.12-3.55,2.79-6.16,5.97-6.02
		c3.59,0.16,7.19,0,10.78,0.05c12.63,0.17,21.6,9.34,21.57,22.05c-0.01,2.31-0.03,4.65-0.35,6.93c-0.5,3.63-1.96,6.9-4.36,9.71
		c-0.46,0.54-0.88,1.13-1.32,1.7c1.34,1.65,2.72,3.18,3.89,4.86c2.3,3.3,3.38,7.03,3.43,11.05c0.03,2.56,0.04,5.11,0.02,7.67
		c-0.1,11.68-8.76,20.72-20.42,21.15c-4.55,0.17-9.11,0.09-13.66,0.03c-3.67-0.05-5.45-1.83-5.5-5.51
		c-0.07-5.36-0.06-10.72-0.01-16.08c0.03-2.95,2.23-5.29,4.98-5.47c2.89-0.19,5.42,1.93,5.64,5.01c0.2,2.79,0.1,5.59,0.12,8.39
		C1004.22,577.62,1004.21,578.48,1004.21,579.63z"/>
	<path class="st0" d="M746.5,516.16c0,1.68,0.01,3.09,0,4.51c-0.02,2.56,0.07,5.13-0.12,7.67c-0.18,2.45-2.15,4.36-4.44,4.67
		c-2.47,0.34-4.83-1-5.73-3.38c-0.27-0.73-0.38-1.56-0.38-2.34c-0.03-5.28-0.01-10.56-0.01-15.84c0-2.01,0.44-3.86,2.16-5.08
		c0.75-0.53,1.72-1.06,2.6-1.07c4.71-0.05,9.43-0.09,14.13,0.16c9.97,0.53,19,8.83,19.4,20.44c0.16,4.74,0.16,9.49-2.08,13.83
		c-1.09,2.11-2.55,4.03-3.91,6.14c1.02,1.15,2.23,2.32,3.2,3.66c2.7,3.73,4.1,7.93,4.13,12.55c0.02,2.48,0.02,4.96-0.04,7.44
		c-0.29,11.73-9.03,20.53-20.75,20.83c-4.39,0.11-8.79,0.06-13.18,0.02c-3.66-0.04-5.37-1.72-5.64-5.41
		c-0.02-0.24-0.02-0.48-0.02-0.72c0-4.96,0-9.92-0.01-14.88c0-1.56,0.24-3.05,1.38-4.21c1.5-1.53,3.3-2.28,5.44-1.56
		c2.13,0.72,3.61,2.15,3.77,4.49c0.16,2.23,0.09,4.47,0.11,6.71c0.01,1.5,0,3.01,0,4.76c3.87,0.05,7.52,0.59,11.1-0.4
		c3.97-1.09,6.9-4.88,7.04-9.05c0.1-2.96,0.12-5.92-0.01-8.88c-0.23-5.24-4.42-9.32-9.64-9.45c-2.7-0.07-5.41-0.01-8.36-0.01
		c-0.06,1.11-0.09,2.04-0.17,2.96c-0.24,3.1-2.57,5.4-5.38,5.34c-2.87-0.07-5.13-2.35-5.24-5.49c-0.1-2.64-0.09-5.28-0.01-7.92
		c0.11-3.56,2.18-5.57,5.79-5.63c3.83-0.07,7.66-0.11,11.49-0.04c5.55,0.11,10.41-4.57,10.19-10.14c-0.06-1.68,0.03-3.36-0.02-5.04
		c-0.16-5.47-4.15-9.49-9.59-9.64C751.4,516.1,749.1,516.16,746.5,516.16z"/>
	<path d="M1084.08,547.85c0,7.68,0.04,15.35-0.01,23.03c-0.07,9.13-6.07,16.74-14.8,18.89c-11.8,2.91-23.5-5.96-23.75-18.16
		c-0.17-8.3-0.07-16.62-0.07-24.92c-0.01-6.78,0.09-13.57-0.01-20.35c-0.12-8,2.79-14.38,9.8-18.47
		c12.52-7.31,28.44,1.66,28.78,16.23c0.18,7.91,0.03,15.83,0.03,23.75C1084.06,547.85,1084.07,547.85,1084.08,547.85z
		 M1056.23,547.84C1056.23,547.84,1056.23,547.84,1056.23,547.84c0,7.76-0.04,15.51,0.02,23.27c0.03,4.54,3.18,7.94,7.59,8.42
		c5.19,0.57,9.44-3.26,9.46-8.75c0.07-14.14,0.04-28.29,0.03-42.43c0-1.75,0.03-3.53-0.23-5.26c-0.82-5.5-6.29-8.01-10.75-6.73
		c-3.68,1.06-6.1,4.21-6.12,8.21C1056.2,532.33,1056.23,540.08,1056.23,547.84z"/>
	<path d="M1096.57,547.81c0-7.75,0.01-15.51,0-23.26c-0.01-10.13,8.12-18.74,18.23-19.27c10.12-0.53,19.17,7.14,20.13,17.24
		c0.3,3.09,0.2,6.23,0.2,9.34c0.02,12.55-0.03,25.1,0.01,37.64c0.01,4.25-0.76,8.25-3.08,11.88c-4.27,6.7-12.53,10.23-20.12,8.55
		c-8.17-1.81-14.36-8.36-15.23-16.49c-0.34-3.24-0.12-6.55-0.13-9.82C1096.57,558.36,1096.58,553.09,1096.57,547.81
		C1096.58,547.81,1096.57,547.81,1096.57,547.81z M1107.26,547.96c0,2.24,0,4.48,0,6.71c0,2.32-0.03,4.64-0.02,6.95
		c0.02,3.52-0.1,7.04,0.17,10.54c0.31,4.07,3.69,7.08,7.85,7.4c3.96,0.3,7.65-2.22,8.7-6.07c0.31-1.14,0.44-2.36,0.44-3.54
		c0.03-13.19,0.01-26.37,0.01-39.56c0-2,0.08-4-0.02-5.99c-0.23-4.44-3.2-7.67-7.54-8.3c-3.83-0.56-7.79,1.8-9.04,5.56
		c-0.42,1.26-0.54,2.66-0.54,4C1107.24,533.09,1107.26,540.53,1107.26,547.96z"/>
	<path d="M1158.53,558.04c-0.07,1.32-0.15,2.07-0.15,2.83c-0.01,7.52,0.01,15.04-0.02,22.56c0,1.03-0.06,2.09-0.33,3.08
		c-0.62,2.31-2.85,3.91-5.18,3.86c-2.4-0.04-4.66-1.88-5.12-4.29c-0.19-1.01-0.19-2.07-0.19-3.11c-0.01-23.36-0.01-46.72,0-70.09
		c0-0.88,0.03-1.76,0.14-2.63c0.36-2.85,2.58-4.91,5.27-4.94c2.56-0.03,5,2.18,5.36,4.91c0.09,0.71,0.06,1.44,0.06,2.16
		c0.01,7.28,0.01,14.56,0.01,21.84c0,0.87,0,1.75,0.42,2.82c0.34-0.54,0.71-1.05,1-1.61c4.47-8.76,8.91-17.53,13.4-26.27
		c0.46-0.91,1.06-1.81,1.8-2.5c1.71-1.58,4.03-1.72,5.99-0.57c2.02,1.19,3.1,3.5,2.53,5.73c-0.27,1.07-0.78,2.09-1.28,3.09
		c-5.13,10.13-10.22,20.27-15.46,30.34c-1.01,1.94-0.91,3.42,0.07,5.28c5.33,10.11,10.56,20.27,15.82,30.42
		c0.22,0.43,0.46,0.84,0.64,1.29c1.03,2.69-0.01,5.44-2.53,6.71c-2.69,1.36-5.51,0.61-6.99-2.09c-2.75-5.05-5.38-10.17-8.04-15.27
		c-2.03-3.9-4.03-7.81-6.06-11.71C1159.44,559.42,1159.13,558.99,1158.53,558.04z"/>
	<path d="M939.81,537.65c1.15-2.22,2.1-4.01,3.02-5.82c3.73-7.34,7.44-14.68,11.17-22.01c0.36-0.71,0.74-1.42,1.2-2.07
		c1.62-2.32,4.34-3.03,6.73-1.8c2.46,1.28,3.65,4.15,2.5,6.72c-1.47,3.28-3.14,6.46-4.77,9.67c-3.9,7.7-7.77,15.41-11.8,23.04
		c-0.94,1.78-0.89,3.18,0.01,4.89c5.21,9.89,10.35,19.82,15.51,29.75c0.41,0.78,0.83,1.55,1.15,2.37c0.94,2.44-0.01,5.11-2.25,6.42
		c-2.42,1.42-5.18,0.98-6.86-1.21c-0.72-0.94-1.22-2.05-1.77-3.12c-4.14-8.02-8.26-16.04-12.4-24.06c-0.36-0.7-0.81-1.35-1.47-2.43
		c-0.14,1.01-0.29,1.59-0.29,2.17c-0.02,8.15-0.08,16.3,0.01,24.45c0.03,2.33-1.44,4.83-3.78,5.52c-3.02,0.9-6.06-0.9-6.78-4.03
		c-0.16-0.69-0.19-1.43-0.19-2.14c-0.01-20.39,0-40.78,0-61.17c0-3.84,0-7.68-0.02-11.52c-0.01-1.77,0.55-3.31,1.88-4.5
		c1.64-1.46,3.55-1.84,5.56-0.94c2.05,0.92,3.27,2.55,3.3,4.86c0.04,3.84-0.01,7.67-0.02,11.51c-0.01,4.64-0.04,9.27-0.03,13.91
		C939.43,536.46,939.6,536.82,939.81,537.65z"/>
	<path d="M877.73,547.91c0-7.52,0.02-15.03-0.01-22.55c-0.02-5.91,1.95-10.97,6.36-14.96c11.27-10.19,28.06-4.14,31.5,9.31
		c0.66,2.58,0.61,5.38,0.55,8.08c-0.06,2.69-2.45,4.73-5.07,4.77c-2.65,0.04-5.03-1.91-5.36-4.53c-0.19-1.5-0.07-3.04-0.26-4.54
		c-0.83-6.31-7.69-9.48-13.07-6.08c-1.84,1.16-3.07,2.81-3.55,4.92c-0.28,1.24-0.42,2.53-0.43,3.79
		c-0.03,14.39-0.03,28.79,0.02,43.18c0.01,1.58,0.16,3.23,0.64,4.72c1.19,3.61,4.94,5.92,8.61,5.55c4.15-0.42,7.21-3.23,7.76-7.26
		c0.2-1.5,0.1-3.04,0.27-4.54c0.27-2.36,1.98-4.15,4.26-4.59c2.13-0.42,4.4,0.58,5.52,2.51c0.35,0.61,0.62,1.32,0.7,2.01
		c1.39,12-6.18,20.07-14.82,22.13c-11.28,2.69-22.87-5.62-23.45-17.21c-0.35-7.1-0.14-14.23-0.18-21.34
		C877.72,550.15,877.72,549.03,877.73,547.91C877.72,547.91,877.73,547.91,877.73,547.91z"/>
	<path d="M848.06,535.43c-0.16,0.5-0.37,0.99-0.49,1.5c-1.05,4.43-2.09,8.86-3.13,13.3c-0.51,2.16-1.57,3.81-3.83,4.49
		c-3.38,1.01-6.79-1.42-6.85-4.95c-0.01-0.63,0.08-1.28,0.22-1.89c2.94-12.52,5.91-25.04,8.83-37.56c0.38-1.62,0.99-3.05,2.38-4.01
		c3.02-2.1,6.89-0.76,8.1,2.89c0.62,1.89,1,3.87,1.45,5.81c2.57,10.97,5.14,21.94,7.71,32.91c2.79,11.9,5.6,23.79,8.35,35.7
		c0.93,4.03-2.48,7.48-6.41,6.55c-2.35-0.56-3.6-2.21-4.13-4.5c-0.99-4.28-1.98-8.56-2.98-12.84c-2.83-12.05-5.66-24.11-8.5-36.16
		c-0.09-0.38-0.2-0.76-0.3-1.14C848.34,535.48,848.2,535.46,848.06,535.43z"/>
	<path d="M798.6,579.66c3.8,0,7.22,0,10.65,0c1.6,0,3.2-0.05,4.8,0c3.14,0.09,5.36,2.23,5.45,5.22c0.09,2.94-2.05,5.31-5.21,5.46
		c-3.19,0.15-6.39,0.06-9.59,0.07c-3.36,0.01-6.71,0.03-10.07,0c-4.87-0.05-6.85-2.01-6.86-6.86c-0.02-15.6-0.01-31.2-0.01-46.8
		c0-8.08-0.01-16.16,0.02-24.24c0-1.03,0.04-2.1,0.29-3.09c0.62-2.42,2.97-4.17,5.3-4.08c2.41,0.09,4.53,1.91,5.01,4.41
		c0.19,1.01,0.21,2.07,0.21,3.1c0.01,21.2,0.01,42.4,0.01,63.6C798.6,577.41,798.6,578.35,798.6,579.66z"/>
	<path d="M953.42,464.76c0.71,0.09,1.17,0.19,1.63,0.19c2.23,0.02,4.45,0.01,6.9,0.01c0.05-0.96,0.12-1.73,0.12-2.51
		c0.01-3.68-0.01-7.35,0.02-11.03c0.01-0.79,0.05-1.61,0.26-2.37c0.32-1.13,1.21-1.67,2.35-1.67c1.11,0,2.1,0.88,2.31,2.05
		c0.1,0.55,0.1,1.11,0.1,1.67c0,10.95,0,21.9,0,32.85c0,0.56,0.01,1.13-0.09,1.67c-0.22,1.17-1.21,2.04-2.33,2.03
		c-1.16-0.01-2.02-0.6-2.34-1.7c-0.22-0.75-0.25-1.57-0.25-2.37c-0.02-3.6,0-7.19-0.01-10.79c0-0.79-0.07-1.57-0.11-2.53
		c-2.8,0-5.47,0-8.45,0c-0.05,1.38-0.13,2.78-0.13,4.18c0,3.27,0.07,6.55,0.05,9.82c0,0.69-0.13,1.45-0.42,2.06
		c-0.44,0.92-1.29,1.47-2.35,1.32c-1.11-0.16-1.93-0.81-2.17-1.95c-0.13-0.61-0.11-1.27-0.11-1.91c0.01-10.87,0.02-21.74,0.03-32.61
		c0-0.16,0-0.32,0-0.48c0.04-2.18,0.96-3.38,2.55-3.34c1.54,0.03,2.48,1.29,2.49,3.45c0.01,3.75-0.01,7.51-0.02,11.26
		C953.42,462.95,953.42,463.81,953.42,464.76z"/>
	<path d="M840.02,569.24c-0.86,3.58-1.66,6.91-2.45,10.24c-0.55,2.33-1.01,4.69-1.66,6.99c-0.63,2.23-2.56,3.7-4.73,3.81
		c-2.29,0.11-4.01-0.87-5.13-2.86c-0.81-1.42-0.67-2.93-0.32-4.43c0.85-3.66,1.73-7.31,2.59-10.96c0.66-2.8,1.4-5.58,1.94-8.4
		c0.65-3.4,3.34-5.3,6.46-5.12c3.02,0.17,6.07,0.01,9.1,0.06c3.12,0.05,5.46,2.19,5.61,5.07c0.15,2.93-2.13,5.4-5.35,5.6
		C844.18,569.33,842.26,569.24,840.02,569.24z"/>
	<path d="M978.21,452.39c0,4.16,0,7.89,0,11.92c1.08,0,2.01-0.01,2.95,0c0.8,0.01,1.61-0.03,2.39,0.1c1.19,0.19,2.05,1.19,2.11,2.27
		c0.06,1.18-0.8,2.29-2.12,2.51c-0.86,0.14-1.75,0.09-2.63,0.12c-0.72,0.03-1.43,0.05-2.15,0.1c-0.14,0.01-0.27,0.14-0.55,0.3
		c0,4.12,0,8.32,0,12.74c0.73,0.07,1.42,0.18,2.1,0.19c1.84,0.03,3.68-0.05,5.51,0.04c1.41,0.07,2.29,0.98,2.38,2.23
		c0.1,1.34-0.74,2.4-2.18,2.69c-0.39,0.08-0.79,0.1-1.19,0.1c-2.87,0-5.75,0.01-8.62-0.04c-2.22-0.04-3.17-1.01-3.17-3.29
		c-0.02-9.59,0-19.19,0-28.78c0-1.68-0.03-3.36,0-5.03c0.04-2.29,0.9-3.18,3.21-3.23c2.87-0.05,5.75-0.02,8.62-0.02
		c0.32,0,0.64-0.02,0.96,0.03c1.44,0.22,2.4,1.26,2.39,2.55c-0.01,1.31-0.97,2.36-2.44,2.46c-1.59,0.1-3.19,0.03-4.79,0.04
		C980.12,452.4,979.26,452.39,978.21,452.39z"/>
	<path d="M931.59,452.4c-1.68,0-3.03,0.04-4.36-0.01c-1.77-0.07-2.87-1.11-2.82-2.58c0.05-1.36,1.1-2.42,2.73-2.44
		c4.63-0.07,9.26-0.09,13.89-0.02c1.8,0.02,2.85,1.14,2.81,2.62c-0.04,1.47-1.09,2.36-2.96,2.43c-1.26,0.05-2.53,0.01-4.05,0.01
		c-0.06,0.93-0.16,1.69-0.16,2.44c-0.02,9.58-0.02,19.17-0.03,28.75c0,0.56,0.05,1.13-0.03,1.68c-0.2,1.42-1.3,2.4-2.57,2.36
		c-1.2-0.03-2.2-0.92-2.41-2.26c-0.11-0.7-0.06-1.44-0.06-2.15c0-8.95,0-17.9,0.01-26.85C931.59,455.18,931.59,453.99,931.59,452.4z
		"/>
	<path d="M855.52,623.37c-0.65,2.55-1.14,4.54-1.68,6.52c-0.26,0.96-0.17,2.36-1.5,2.42c-1.44,0.06-1.29-1.39-1.51-2.33
		c-1.13-4.9-2.2-9.82-3.3-14.73c-0.1-0.47-0.36-0.97-0.27-1.39c0.1-0.47,0.45-1.12,0.84-1.23c0.35-0.11,1.05,0.28,1.29,0.65
		c0.34,0.51,0.42,1.19,0.56,1.82c0.66,2.88,1.29,5.77,1.95,8.65c0.06,0.27,0.19,0.53,0.73,0.85c0.26-0.87,0.54-1.73,0.76-2.61
		c0.4-1.55,0.7-3.12,1.18-4.64c0.14-0.43,0.72-0.99,1.11-1c0.38-0.01,1,0.53,1.14,0.96c0.41,1.2,0.63,2.47,0.93,3.71
		c0.31,1.3,0.64,2.6,1.3,3.9c0.2-0.67,0.44-1.33,0.61-2.01c0.67-2.71,1.31-5.43,1.98-8.15c0.13-0.54,0.26-1.12,0.57-1.56
		c0.23-0.33,0.87-0.72,1.11-0.6c0.42,0.2,0.9,0.74,0.93,1.17c0.05,0.69-0.23,1.4-0.4,2.1c-1.16,4.73-2.3,9.46-3.5,14.18
		c-0.24,0.94-0.21,2.34-1.63,2.28c-1.24-0.05-1.17-1.35-1.39-2.23c-0.4-1.63-0.7-3.28-1.08-4.91
		C856.16,624.73,855.92,624.33,855.52,623.37z"/>
	<path d="M884.42,623.29c0-1.96,0-3.93,0-5.89c0-1.12-0.02-2.24,0-3.36c0.01-0.78,0.3-1.62,1.14-1.49c0.48,0.08,0.91,0.91,1.22,1.47
		c0.17,0.31,0.06,0.78,0.06,1.18c0,4.8,0.01,9.59,0,14.39c0,1.01,0.24,2.36-1,2.66c-1.37,0.33-1.51-1.1-1.89-2.02
		c-0.94-2.29-1.84-4.59-2.77-6.88c-0.27-0.66-0.57-1.3-1.2-1.95c-0.08,0.47-0.22,0.94-0.22,1.41c-0.03,2.4-0.01,4.8-0.02,7.19
		c0,0.48,0.11,1.05-0.11,1.41c-0.25,0.4-0.78,0.78-1.24,0.84c-0.26,0.04-0.73-0.53-0.88-0.91c-0.16-0.42-0.07-0.95-0.07-1.43
		c0-5.12,0-10.23-0.01-15.35c0-0.32-0.09-0.68,0.03-0.95c0.18-0.41,0.49-1.04,0.76-1.05c0.46-0.02,1.07,0.27,1.36,0.64
		c0.39,0.47,0.55,1.14,0.79,1.73c1.13,2.8,2.24,5.61,3.36,8.41C883.95,623.34,884.19,623.31,884.42,623.29z"/>
	<path d="M1063.88,621.62c0,2.6,0.02,5.21-0.01,7.81c-0.01,0.71-0.04,1.45-0.26,2.11c-0.12,0.35-0.69,0.76-1.04,0.74
		c-0.35-0.02-0.81-0.46-0.99-0.83c-0.2-0.4-0.18-0.93-0.18-1.41c-0.01-5.03-0.02-10.06,0.01-15.09c0-0.91-0.24-2.14,1.02-2.39
		c1.29-0.25,1.44,1.03,1.78,1.86c1.22,2.93,2.38,5.88,3.96,8.81c0.07-0.49,0.19-0.97,0.2-1.46c0.02-2,0.01-3.99,0.01-5.99
		c0-0.48-0.01-0.96,0-1.44c0.03-0.83,0.15-1.65,1.15-1.83c0.79-0.14,1.34,0.61,1.35,1.87c0.02,3.59-0.01,7.18-0.01,10.77
		c0,1.44,0.01,2.87,0.01,4.31c0,0.56,0.09,1.16-0.09,1.66c-0.16,0.46-0.59,1.07-0.98,1.13c-0.38,0.07-1.08-0.36-1.27-0.75
		c-0.64-1.28-1.11-2.64-1.64-3.98c-0.8-1.99-1.6-3.98-2.4-5.98C1064.28,621.57,1064.08,621.6,1063.88,621.62z"/>
	<path d="M929.08,621.96c1.61,1.79,1.8,3.9,1.53,6.1c-0.27,2.24-1.99,3.99-4.17,4.33c-4.44,0.68-4.99,0.22-4.99-4.25
		c0-4.39-0.02-8.79,0.01-13.18c0.02-2.34,0.3-2.54,2.65-2.61c2-0.06,3.85,0.25,5.15,1.95c1.52,1.99,1.29,4.18,0.53,6.37
		C929.64,621.09,929.35,621.48,929.08,621.96z M924.03,623.41c0,2.2,0,4.37,0,6.65c1.49,0.04,2.98,0.35,3.78-1.1
		c0.81-1.45,0.76-3.13,0.03-4.58C927.07,622.87,925.55,623.29,924.03,623.41z M923.98,620.68c1.69,0.28,3.08,0.23,3.7-1.28
		c0.48-1.17,0.58-2.49-0.28-3.61c-0.91-1.2-2.1-1.12-3.42-0.74C923.98,616.97,923.98,618.75,923.98,620.68z"/>
	<path d="M1039.54,623.84c-1.54,0-2.79,0-4.34,0c-0.03,0.92-0.06,1.84-0.08,2.77c-0.02,1.44,0.01,2.88-0.04,4.32
		c-0.03,0.82-0.54,1.48-1.34,1.32c-0.42-0.08-0.82-0.81-1.03-1.33c-0.17-0.41-0.07-0.95-0.07-1.43c-0.01-4.8-0.01-9.6-0.02-14.4
		c0-0.4,0.01-0.8,0.02-1.2c0.03-0.85,0.52-1.49,1.3-1.36c0.44,0.07,1.02,0.81,1.09,1.32c0.17,1.18,0.08,2.39,0.09,3.59
		c0.01,1.11,0,2.23,0,3.56c1.45,0,2.74,0,4.38,0c0-1.8-0.01-3.52,0-5.25c0.01-0.8-0.07-1.63,0.16-2.37
		c0.12-0.38,0.79-0.76,1.24-0.81c0.27-0.03,0.7,0.55,0.88,0.93c0.16,0.33,0.07,0.79,0.07,1.18c0,5.12,0.01,10.24-0.01,15.36
		c0,0.9,0.3,2.07-1.09,2.28c-0.83,0.13-1.21-0.69-1.22-2.42C1039.53,627.93,1039.54,625.96,1039.54,623.84z"/>
	<path d="M956.85,624.58c0.71,1.79,1.32,3.34,1.93,4.9c0.17,0.44,0.49,0.9,0.47,1.34c-0.02,0.48-0.24,1.18-0.59,1.35
		c-0.33,0.16-1.08-0.12-1.37-0.44c-0.41-0.45-0.58-1.12-0.81-1.71c-0.51-1.26-0.97-2.53-1.5-3.78c-0.37-0.85-0.41-0.83-2.14-0.83
		c0,1.4,0,2.81,0,4.22c0,0.48,0.13,1.02-0.06,1.42c-0.24,0.5-0.73,0.87-1.12,1.29c-0.36-0.46-0.9-0.87-1.03-1.38
		c-0.19-0.75-0.1-1.58-0.1-2.38c0-4.54,0.02-9.09,0.03-13.63c0.01-2.28,0.3-2.56,2.64-2.6c1.71-0.03,3.4,0.11,4.62,1.47
		c0.62,0.69,1.32,1.56,1.42,2.41C959.56,619.23,960.05,622.37,956.85,624.58z M952.98,622.32c2.92,0.72,3.98-0.06,4.05-2.84
		c0.01-0.47,0.01-0.95,0-1.43c-0.07-2.78-1.07-3.54-4.05-2.92C952.98,617.52,952.98,619.94,952.98,622.32z"/>
	<path d="M983.17,625.27c-0.09,0.91-0.17,1.34-0.17,1.78c-0.02,1.12,0.01,2.24-0.02,3.36c-0.02,0.89-0.04,1.97-1.26,1.9
		c-1.12-0.07-1.19-1.08-1.18-2.01c0.01-5.2,0.01-10.39,0.02-15.59c0-0.98,0-2.19,1.26-2.18c1.33,0.01,1.15,1.28,1.18,2.22
		c0.04,1.47,0.05,2.94,0.08,4.42c0.18,0.04,0.37,0.08,0.55,0.12c0.68-1.31,1.36-2.62,2.03-3.93c0.26-0.5,0.49-1.01,0.75-1.5
		c0.41-0.77,0.75-1.79,1.91-1.2c1.15,0.59,0.55,1.43,0.13,2.23c-1.03,1.98-1.96,4.02-3.02,5.98c-0.59,1.1-0.6,2.01,0.02,3.12
		c1.18,2.08,2.24,4.24,3.25,6.41c0.18,0.38,0.06,1.16-0.23,1.43c-0.51,0.49-1.2,0.35-1.64-0.28c-0.27-0.39-0.49-0.82-0.71-1.25
		c-0.62-1.21-1.22-2.43-1.86-3.62C984.05,626.3,983.74,625.99,983.17,625.27z"/>
	<path d="M938.6,627.49c-0.28,1.11-0.52,2.1-0.8,3.08c-0.13,0.45-0.27,0.94-0.55,1.29c-0.21,0.26-0.76,0.51-0.99,0.4
		c-0.37-0.16-0.77-0.6-0.84-0.98c-0.1-0.52,0.04-1.11,0.17-1.65c1.2-5.12,2.42-10.24,3.64-15.36c0.09-0.38,0.15-0.8,0.33-1.14
		c0.47-0.84,1.38-0.91,1.92-0.13c0.26,0.38,0.41,0.86,0.52,1.32c1.22,5.2,2.43,10.4,3.64,15.61c0.09,0.39,0.32,0.84,0.2,1.15
		c-0.18,0.46-0.55,0.97-0.97,1.15c-0.26,0.11-0.96-0.26-1.11-0.58c-0.33-0.71-0.48-1.51-0.64-2.29c-0.41-1.95-0.52-2.06-2.51-2.03
		C940.05,627.36,939.49,627.42,938.6,627.49z M941.87,625.02c-0.47-3.53-0.51-3.64-1.62-4.77c-0.33,1.51-0.64,2.97-1,4.64
		C940.16,624.93,940.91,624.97,941.87,625.02z"/>
	<path d="M1020.07,622.51c0,1.75-0.05,3.51,0.02,5.26c0.05,1.37,0.85,2.2,1.98,2.25c0.97,0.04,1.79-0.69,2.09-1.9
		c0.06-0.23-0.05-0.56,0.08-0.7c0.38-0.43,0.81-1.07,1.27-1.12c0.94-0.1,1.08,0.73,1.11,1.49c0.07,2.15-1.66,4.23-3.8,4.58
		c-2.18,0.36-4.34-1.04-4.94-3.22c-0.08-0.31-0.16-0.63-0.16-0.94c0-3.98-0.06-7.97,0.08-11.95c0.07-2.09,1.55-3.26,3.46-3.79
		c1.56-0.44,3.71,0.38,4.55,1.92c0.5,0.92,0.59,2.1,0.7,3.18c0.03,0.29-0.57,0.92-0.85,0.91c-0.45-0.02-0.93-0.4-1.28-0.74
		c-0.19-0.18-0.12-0.6-0.2-0.91c-0.38-1.48-1.04-2.04-2.25-1.92c-1.19,0.11-1.8,0.79-1.87,2.33c-0.08,1.75-0.02,3.51-0.02,5.27
		C1020.05,622.51,1020.06,622.51,1020.07,622.51z"/>
	<path d="M895.36,614.92c-0.07,0.72-0.16,1.25-0.17,1.79c-0.02,1.26-0.01,2.53-0.01,3.94c0.89,0.1,1.62,0.07,2.26,0.29
		c0.52,0.18,1.26,0.59,1.34,1c0.16,0.83-0.56,1.23-1.35,1.32c-0.63,0.07-1.26,0.09-2.07,0.14c0,2.17,0,4.27,0,6.69
		c1.18,0,2.27-0.02,3.36,0.01c0.81,0.02,1.52,0.41,1.34,1.26c-0.09,0.43-0.84,0.96-1.34,1.01c-1.34,0.14-2.71,0.08-4.07,0.02
		c-1.46-0.07-1.84-0.41-1.88-1.87c-0.07-2.08-0.03-4.15-0.03-6.23c0-3.12-0.01-6.23,0.02-9.35c0.02-2.33,0.27-2.56,2.66-2.6
		c1.12-0.02,2.25-0.1,3.35,0.07c0.5,0.08,1.24,0.63,1.32,1.07c0.15,0.81-0.49,1.26-1.34,1.29
		C897.65,614.82,896.56,614.87,895.36,614.92z"/>
	<path d="M1050.37,614.75c0,2.18,0,3.99,0,5.94c0.93,0.09,1.8,0.09,2.62,0.3c0.37,0.09,0.93,0.62,0.9,0.9
		c-0.05,0.45-0.43,1.09-0.83,1.23c-0.72,0.26-1.55,0.2-2.49,0.3c-0.85,2.06,0.08,4.2-0.5,6.6c1.45,0.03,2.61,0.06,3.77,0.08
		c0.83,0.01,1.53,0.36,1.38,1.22c-0.07,0.42-0.81,0.99-1.29,1.04c-1.42,0.14-2.87,0.04-4.3,0.07c-1.25,0.03-1.7-0.64-1.7-1.78
		c-0.02-2.55-0.06-5.1-0.07-7.65c-0.01-2.71,0.01-5.41-0.01-8.12c-0.01-2,0.33-2.44,2.27-2.51c1.27-0.05,2.56-0.1,3.82,0.06
		c0.47,0.06,0.87,0.71,1.3,1.09c-0.4,0.41-0.75,1.11-1.21,1.18C1052.95,614.87,1051.83,614.75,1050.37,614.75z"/>
	<path d="M1006.33,615.01c-1.09-0.13-1.84-0.09-2.47-0.35c-0.39-0.17-0.77-0.77-0.82-1.22c-0.03-0.3,0.51-0.95,0.82-0.96
		c2.47-0.07,4.94-0.07,7.4,0.04c0.34,0.01,0.91,0.76,0.9,1.15c-0.01,0.37-0.6,0.87-1.04,1.03c-0.64,0.23-1.38,0.21-2.23,0.32
		c-0.04,0.88-0.11,1.66-0.12,2.43c-0.01,3.68-0.01,7.36-0.01,11.04c0,0.4,0,0.8,0,1.2c-0.03,1.87-0.45,2.81-1.29,2.65
		c-1.47-0.28-1.11-1.56-1.12-2.52c-0.04-3.92-0.01-7.84-0.01-11.76C1006.33,617.11,1006.33,616.16,1006.33,615.01z"/>
	<path d="M997.45,622.55c0,2.31,0,4.62,0,6.94c0,0.48,0.12,1.01-0.06,1.42c-0.22,0.53-0.61,1.25-1.06,1.36
		c-0.87,0.21-1.19-0.6-1.31-1.34c-0.08-0.47-0.05-0.95-0.05-1.43c0-4.78-0.01-9.57,0-14.35c0-1.01-0.22-2.21,1.12-2.58
		c0.85-0.24,1.32,0.69,1.33,2.57c0.02,2.47,0,4.94,0,7.41C997.43,622.55,997.44,622.55,997.45,622.55z"/>
	<path d="M871.29,622.62c0,2.39,0,4.78,0,7.17c0,0.48,0.09,1.01-0.09,1.41c-0.21,0.45-0.66,1.02-1.06,1.06
		c-0.33,0.03-0.88-0.55-1.07-0.97c-0.22-0.48-0.2-1.09-0.2-1.64c-0.01-4.78-0.02-9.56,0-14.34c0-1.1-0.15-2.36,1.25-2.77
		c0.78-0.22,1.17,0.74,1.17,2.68C871.28,617.68,871.28,620.15,871.29,622.62C871.28,622.62,871.29,622.62,871.29,622.62z"/>
	<path d="M910.77,625.17c-1.04,0-2.1,0.13-3.1-0.05c-0.49-0.09-0.88-0.75-1.32-1.15c0.44-0.39,0.87-1.09,1.33-1.12
		c2.15-0.12,4.31-0.1,6.46,0.01c0.4,0.02,0.77,0.64,1.15,0.99c-0.39,0.43-0.73,1.15-1.17,1.22c-1.09,0.18-2.22,0.06-3.34,0.06
		C910.77,625.14,910.77,625.16,910.77,625.17z"/>
	<path d="M969.96,625.17c-1.04,0-2.09,0.12-3.1-0.05c-0.47-0.08-0.84-0.75-1.26-1.15c0.43-0.39,0.84-1.09,1.29-1.12
		c2.06-0.12,4.14-0.13,6.21-0.01c0.48,0.03,1.25,0.63,1.33,1.06c0.15,0.82-0.58,1.23-1.36,1.27c-1.03,0.05-2.07,0.01-3.11,0.01
		C969.96,625.18,969.96,625.17,969.96,625.17z"/>
	<path d="M1083.11,621.86c-0.03,0.94-0.99,1.95-1.81,1.79c-0.98-0.19-1.45-0.87-1.45-1.87c0-1.08,0.76-1.83,1.77-1.73
		C1082.52,620.14,1083.14,620.89,1083.11,621.86z"/>
	<path d="M839.62,621.79c-0.01,0.99-0.46,1.68-1.46,1.85c-0.9,0.15-1.74-0.76-1.77-1.8c-0.02-1.07,0.74-1.87,1.72-1.82
		C839.01,620.06,839.62,620.78,839.62,621.79z"/>
</g>
</svg>
